<svg xmlns="http://www.w3.org/2000/svg" viewBox="0 0 160 40" width="100%" height="100%">
  <!-- BLUFIG Wordmark -->
  <g fill="#514B5C" class="logo-text">
    <!-- B -->
    <path d="M12 8h8.5c2.8 0 4.5 1.4 4.5 3.5 0 1.8-1.1 2.8-2.8 3.2 2 .4 3.3 1.5 3.3 3.8 0 2.5-2 4.5-5 4.5H12V8zm6 5.5h2.2c1 0 1.5-.4 1.5-1.1 0-.7-.5-1.1-1.5-1.1H18v2.2zm0 6.5h2.5c1 0 1.7-.4 1.7-1.2 0-.8-.7-1.2-1.7-1.2H18V20z" />
    <!-- L -->
    <path d="M32 8h6v11h7v5h-13V8z" />
    <!-- U -->
    <path d="M50 8h6v10c0 1.5.8 2.2 2 2.2s2-.7 2-2.2V8h6v10c0 4.5-3 6.5-8 6.5s-8-2-8-6.5V8z" />
    <!-- F -->
    <path d="M71 8h12v4.5h-6v3.5h5V20h-5v5h-6V8z" />
    <!-- I -->
    <path d="M89 8h6v17h-6V8z" />
    <!-- G (Main body) -->
    <path d="M115.5 8c-4.7 0-8.5 3.8-8.5 8.5s3.8 8.5 8.5 8.5 c3.2 0 6-1.8 7.3-4.5h-5.8c-.5.8-1.3 1.2-2.2 1.2-2.2 0-3.8-1.6-3.8-3.8s1.6-3.8 3.8-3.8c1.3 0 2.4.8 2.9 2h3.1c-.5-1.8-1.5-3.3-3.1-4.2C118.6 8.3 117.1 8 115.5 8z" />
  </g>
  <!-- G (Custom Cyan Arrow/Badge Element) -->
  <path d="M119.8 15.5c0-.8.5-1.5 1.2-1.8l3.8-1.7c.6-.3 1.2.2 1.2.8v4.2c0 .8-.5 1.5-1.2 1.8l-3.8 1.7c-.6.3-1.2-.2-1.2-.8v-4.2z" fill="#31a9e1" />
  <!-- Secondary Cyan Accent Curve -->
  <path d="M120 18.5h3v3h-3z" fill="#31a9e1" opacity="0" />
</svg>
