
<?xml version="1.0" encoding="UTF-8"?>
<svg id="Layer_2" data-name="Layer 2" xmlns="http://www.w3.org/2000/svg" xmlns:xlink="http://www.w3.org/1999/xlink" viewBox="0 0 230.76 50.84">
  <defs>
    <style>
      .cls-1 {
        fill: none;
      }

      .cls-2 {
        fill: #2cace2;
      }

      .cls-3 {
        clip-path: url(#clippath-1);
      }

      .cls-4 {
        fill: #61546d;
      }

      .cls-5 {
        clip-path: url(#clippath);
      }
    </style>
    <clipPath id="clippath">
      <rect class="cls-1" width="230.76" height="50.84"/>
    </clipPath>
    <clipPath id="clippath-1">
      <rect class="cls-1" y="0" width="230.76" height="50.84"/>
    </clipPath>
  </defs>
  <g id="Layer_1-2" data-name="Layer 1">
    <g id="Primary_Logo" data-name="Primary Logo">
      <g class="cls-5">
        <g class="cls-3">
          <path class="cls-4" d="M0,.26c3.42-.09,8.89-.12,14.47-.12,6.83,0,11.02.66,14.62,2.79,3.45,1.84,5.95,5.22,5.95,9.7s-2.57,8.52-8.15,10.58v.15c5.66,1.54,9.85,5.8,9.85,12.2,0,4.48-2.06,8.01-5.14,10.51-3.6,2.86-8.15,4.48-18,4.48-4.05.04-9.44,0-13.6,0V.26ZM10.59,20.13h3.67c5.88,0,9.04-2.42,9.04-6.1s-2.86-5.73-7.93-5.73c-1.6-.03-3.16,0-4.77,0v11.83ZM10.59,42.25c1.44,0,2.89.04,4.33,0,5.07,0,9.55-1.91,9.55-7.13s-4.48-6.98-10.07-6.98h-3.82v14.11Z"/>
          <path class="cls-4" d="M44.37.52h6.03c2.88,0,5.2,2.33,5.2,5.21v34.91h14.48c2.88,0,5.21,2.33,5.21,5.21v4.2h-30.93V.52Z"/>
          <path class="cls-4" d="M85.6.52c2.88,0,5.21,2.33,5.21,5.21v23.3c0,8.52,3.23,12.86,8.96,12.86s9.11-4.11,9.11-12.86V.52h11.17v27.77c0,15.28-7.71,22.55-20.65,22.55s-19.84-6.91-19.84-22.7V.52h6.04Z"/>
          <path class="cls-4" d="M129.74.52h30.27v3.98c0,2.88-2.33,5.21-5.2,5.21h-13.82v11.31h17.78v3.9c0,2.88-2.33,5.21-5.21,5.21h-12.57v19.91h-11.24V.52Z"/>
          <path class="cls-4" d="M179.7,5.72v44.31h-6.03c-2.88,0-5.21-2.33-5.21-5.21V.51h6.04c2.87,0,5.21,2.33,5.21,5.21"/>
          <path class="cls-4" d="M198.87,25.27c0,10.21,6.39,16.24,15.57,16.24,1.02,0,1.95-.04,2.77-.13l-.31,1.12c-1.39,4.99-6.44,7.99-11.49,6.89-4.7-1.02-8.44-2.74-11.31-5.53-4.56-4.26-7.05-10.73-6.98-18,.07-16.46,12.05-25.86,28.28-25.86,5.66,0,10.17.98,12.81,2.02l-2.49,8.93c-2.54-.97-5.71-1.7-10.46-1.7-9.33,0-16.38,5.29-16.38,16.02"/>
          <path class="cls-2" d="M230.76,21.67h-18.44v3.54h0c0,2.88,2.33,5.21,5.21,5.21h4.47v9.7h3.54c2.88,0,5.21-2.33,5.21-5.21v-4.47h.03v-8.77Z"/>
        </g>
      </g>
    </g>
  </g>
</svg>