<svg xmlns="http://www.w3.org/2000/svg" viewBox="0 0 205 50" width="100%" height="100%">
  <!-- BLUFIG Wordmark -->
  <g fill="#514B5C">
    <!-- B -->
    <path d="M 10,7 H 30 C 36.6,7 42,11 42,18 C 42,23 38,25 34,25 C 39,25 42,28.5 42,34 C 42,40 36.6,43 30,43 H 10 Z M 19.5,14 H 27 C 29.5,14 31.5,15 31.5,18.5 C 31.5,22 29.5,23 27,23 H 19.5 Z M 19.5,29 H 27 C 29.5,29 31.5,30 31.5,33.5 C 31.5,37 29.5,38 27,38 H 19.5 Z" fill-rule="evenodd" />
    <!-- L -->
    <path d="M 48,7 H 57.5 V 34.5 H 72 V 43.5 H 48 Z" />
    <!-- U -->
    <path d="M 78,7 H 87.5 V 31 C 87.5,33.5 89,35 91.5,35 H 96.5 C 99,35 100.5,33.5 100.5,31 V 7 H 110 V 31 C 110,39.5 104,43.5 94,43.5 C 84,43.5 78,39.5 78,31 Z" />
    <!-- F -->
    <path d="M 116,7 H 138 V 16.5 H 125.5 V 22 H 135 V 29.5 H 125.5 V 43.5 H 116 Z" />
    <!-- I -->
    <path d="M 144,7 H 153.5 V 43.5 H 144 Z" />
    <!-- G -->
    <path d="M 191.5,17 C 190,11 184,7 175.5,7 C 165.5,7 159.5,14.5 159.5,25.25 C 159.5,36 165.5,43.5 175.5,43.5 C 184,43.5 190,39.5 191.5,33.5 H 181.5 C 180,35.5 178,36 175.5,36 C 170.5,36 168.5,31.5 168.5,25.25 C 168.5,19 170.5,14.5 175.5,14.5 C 178,14.5 180,15 181.5,17 Z" />
  </g>
  <!-- G's Cyan Accent -->
  <path d="M 176,21 H 192.5 V 33.5 C 192.5,35.5 190.5,36.5 188.5,36.5 H 185.5 C 184,36.5 183,35.5 183,33.5 V 27.5 H 178 C 176.5,27.5 176,26.5 176,25 Z" fill="#31a9e1" />
</svg>
